# xmcd
#
# Track frame offsets:
#	150
#	10117
#	23493
#	40665
#	55148
#	70274
#	78327
#	87773
#	100439
#	119750
#	138208
#	149623
#
# Disc length: 2222 seconds
# Revision: 0
# Processed by: cddbd v1.5.2PL0 Copyright (c) Steve Scherf et al.
# Submitted via: dBpowerAMP V12.0
#
DISCID=9a08ac0c
DTITLE=Philip Sayce - Silver Wheel Of Stars
DYEAR=2007
DGENRE=Blues
TTITLE0=Gimme Some More
TTITLE1=Let The Love In
TTITLE2=Are You Ready?
TTITLE3=Set Us Free
TTITLE4=Daydream Tonight
TTITLE5=Ruby Electric
TTITLE6=Do You Believe?
TTITLE7=Take You Away
TTITLE8=Changes
TTITLE9=Arianrhod
TTITLE10=King Of New Mexico
TTITLE11=Were You There?
EXTD=
EXTT0=
EXTT1=
EXTT2=
EXTT3=
EXTT4=
EXTT5=
EXTT6=
EXTT7=
EXTT8=
EXTT9=
EXTT10=
EXTT11=
PLAYORDER=
